<?xml version="1.0" encoding="UTF-8"?>
<!--
  Bamboard Live dashboard — visual refresh, 1:1 scale of the JC4827W543 (480 x 272).

  Layout grid (target for firmware/src/ui/screens/dashboard.cpp):
    Header        : y =   0 ..  36   screen title (left) · printer (centre) · link badge (right)
    Body content  : y =  36 .. 228
      - hero: progress ring + state pill / ETA / file / layer : y =  44 .. 116
      - 3-cell temperature row (equal 146 px cells)           : y = 124 .. 164
      - speed segmented chip (SPEED caption above)            : y = 178 .. 222
    Tab bar       : y = 228 .. 272

  Icons are inline vector <symbol>s that stand in for the FontAwesome glyphs the
  firmware renders (home / drop / list / loop / gear / wifi). Palette is the
  literal ui:: tokens from firmware/src/config.h.
-->
<svg xmlns="http://www.w3.org/2000/svg" viewBox="0 0 480 272" width="480" height="272" font-family="'Inter','Segoe UI',system-ui,sans-serif">
  <defs>
    <!-- accent fills: subtle vertical gradient = LVGL bg_grad_dir VER (C_ACCENT -> C_ACCENT_DARK) -->
    <linearGradient id="acc" x1="0" y1="0" x2="0" y2="1">
      <stop offset="0" stop-color="#00C6D4"/>
      <stop offset="1" stop-color="#008F9B"/>
    </linearGradient>
    <linearGradient id="accArc" x1="0" y1="0" x2="1" y2="1">
      <stop offset="0" stop-color="#2BE0EC"/>
      <stop offset="1" stop-color="#00A4B0"/>
    </linearGradient>
    <!-- panel top-edge sheen: a 1px lighter inner highlight for elevation -->
    <linearGradient id="panel" x1="0" y1="0" x2="0" y2="1">
      <stop offset="0" stop-color="#2B313B"/>
      <stop offset="1" stop-color="#222831"/>
    </linearGradient>
    <!-- soft card shadow = LVGL shadow_width + shadow_ofs_y -->
    <filter id="cardSh" x="-20%" y="-20%" width="140%" height="160%">
      <feDropShadow dx="0" dy="2" stdDeviation="3" flood-color="#000000" flood-opacity="0.35"/>
    </filter>
    <filter id="glow" x="-60%" y="-60%" width="220%" height="220%">
      <feGaussianBlur stdDeviation="3.2" result="b"/><feMerge><feMergeNode in="b"/><feMergeNode in="SourceGraphic"/></feMerge>
    </filter>

    <!-- ===== icon library (24x24) — stand in for the firmware FA glyphs ===== -->
    <symbol id="ic-home" viewBox="0 0 24 24"><path d="M4 11.2 12 4l8 7.2M6 10v9h12v-9M10 19v-5h4v5" fill="none" stroke="currentColor" stroke-width="1.8" stroke-linejoin="round" stroke-linecap="round"/></symbol>
    <symbol id="ic-drop" viewBox="0 0 24 24"><path d="M12 3.2C12 3.2 5.5 10 5.5 14.5a6.5 6.5 0 0 0 13 0C18.5 10 12 3.2 12 3.2Z" fill="currentColor"/></symbol>
    <symbol id="ic-list" viewBox="0 0 24 24"><g fill="none" stroke="currentColor" stroke-width="1.8" stroke-linecap="round"><path d="M8 7h11M8 12h11M8 17h11"/><circle cx="4.2" cy="7" r="1.1" fill="currentColor" stroke="none"/><circle cx="4.2" cy="12" r="1.1" fill="currentColor" stroke="none"/><circle cx="4.2" cy="17" r="1.1" fill="currentColor" stroke="none"/></g></symbol>
    <symbol id="ic-loop" viewBox="0 0 24 24"><path d="M19 12a7 7 0 1 1-2.05-4.95M19 4v4h-4" fill="none" stroke="currentColor" stroke-width="1.8" stroke-linecap="round" stroke-linejoin="round"/></symbol>
    <symbol id="ic-gear" viewBox="0 0 24 24"><g fill="none" stroke="currentColor" stroke-width="1.7" stroke-linejoin="round"><circle cx="12" cy="12" r="3.1"/><path d="M12 2.6v3M12 18.4v3M21.4 12h-3M5.6 12h-3M18.6 5.4l-2.1 2.1M7.5 16.5l-2.1 2.1M18.6 18.6l-2.1-2.1M7.5 7.5 5.4 5.4"/></g></symbol>
    <symbol id="ic-wifi" viewBox="0 0 24 24"><g fill="none" stroke="currentColor" stroke-width="1.8" stroke-linecap="round"><path d="M4 9a13 13 0 0 1 16 0"/><path d="M7 12.4a8.5 8.5 0 0 1 10 0"/><path d="M9.6 15.7a4.2 4.2 0 0 1 4.8 0"/></g><circle cx="12" cy="18.6" r="1.3" fill="currentColor"/></symbol>
  </defs>

  <!-- Background -->
  <rect width="480" height="272" fill="#0E1116"/>

  <!-- ============ Header (y 0..36) ============ -->
  <rect x="0" y="0" width="480" height="36" fill="#1A1F26"/>
  <rect x="0" y="35" width="480" height="1" fill="#2F3742"/>
  <!-- left: accent mark + screen title (firmware puts the current screen name here) -->
  <rect x="12" y="13" width="10" height="10" rx="3" fill="url(#acc)"/>
  <text x="29" y="24" font-size="16" font-weight="700" fill="#E9EEF3">Live</text>
  <!-- centre: focused printer -->
  <text x="240" y="23" font-size="13" text-anchor="middle" fill="#8A95A4">Workshop X1C</text>
  <!-- right: link badge -->
  <g transform="translate(398,8)">
    <rect width="70" height="20" rx="10" fill="#15271F" stroke="#2F3742"/>
    <use href="#ic-wifi" x="7" y="3" width="14" height="14" style="color:#39D98A"/>
    <text x="26" y="14" font-size="11" font-weight="600" fill="#39D98A">36 ms</text>
  </g>

  <!-- ============ Hero: progress ring + status (y 44..116) ============ -->
  <!-- ring centre (54,80) r=30 stroke 7. circumference = 2*PI*30 = 188.5; 62% = 116.9 -->
  <g transform="translate(54,80)">
    <circle r="30" fill="none" stroke="#252B34" stroke-width="7"/>
    <circle r="30" fill="none" stroke="url(#accArc)" stroke-width="7" stroke-linecap="round"
            stroke-dasharray="116.9 188.5" transform="rotate(-90)" filter="url(#glow)"/>
    <text font-size="20" font-weight="700" fill="#E9EEF3" text-anchor="middle" dominant-baseline="central">62%</text>
  </g>
  <!-- state pill -->
  <g transform="translate(100,50)">
    <rect width="104" height="26" rx="13" fill="#0E2A2E" stroke="#017782"/>
    <circle cx="15" cy="13" r="4" fill="url(#acc)"/>
    <text x="28" y="18" font-size="14" font-weight="700" fill="#2BE0EC">PRINTING</text>
  </g>
  <!-- ETA right -->
  <text x="468" y="60" font-size="16" font-weight="700" fill="#E9EEF3" text-anchor="end">ETA 1h12</text>
  <!-- filename + layer -->
  <text x="101" y="98" font-size="12" fill="#8A95A4">benchy_v2_pla.3mf</text>
  <text x="468" y="98" font-size="12" fill="#8A95A4" text-anchor="end">layer 164 / 267</text>

  <!-- ============ Temperature row (y 124..164) — 3 equal 146-px cells ============ -->
  <g transform="translate(12,124)">
    <rect width="146" height="40" rx="12" fill="url(#panel)" stroke="#2F3742" filter="url(#cardSh)"/>
    <text x="12" y="16" font-size="9" font-weight="700" letter-spacing="1.2" fill="#8A95A4">NOZZLE</text>
    <text x="134" y="30" font-size="16" font-weight="700" fill="#E9EEF3" text-anchor="end">220°</text>
  </g>
  <g transform="translate(167,124)">
    <rect width="146" height="40" rx="12" fill="url(#panel)" stroke="#2F3742" filter="url(#cardSh)"/>
    <text x="12" y="16" font-size="9" font-weight="700" letter-spacing="1.2" fill="#8A95A4">BED</text>
    <text x="134" y="30" font-size="16" font-weight="700" fill="#E9EEF3" text-anchor="end">60°</text>
  </g>
  <g transform="translate(322,124)">
    <rect width="146" height="40" rx="12" fill="url(#panel)" stroke="#2F3742" filter="url(#cardSh)"/>
    <text x="12" y="16" font-size="9" font-weight="700" letter-spacing="1.2" fill="#8A95A4">CHAMBER</text>
    <text x="134" y="30" font-size="16" font-weight="700" fill="#E9EEF3" text-anchor="end">35°</text>
  </g>

  <!-- ============ Speed segmented chip (y 178..222) ============ -->
  <text x="14" y="174" font-size="9" font-weight="700" letter-spacing="1.2" fill="#8A95A4">SPEED</text>
  <g transform="translate(12,178)">
    <rect width="456" height="44" rx="16" fill="#1A1F26" stroke="#2F3742"/>
    <g transform="translate(4,4)">
      <rect x="0"   y="0" width="112" height="36" rx="12" fill="#252B34"/>
      <text x="56"  y="23" font-size="13" text-anchor="middle" fill="#8A95A4">Silent</text>
      <rect x="113" y="0" width="112" height="36" rx="12" fill="url(#acc)" filter="url(#cardSh)"/>
      <text x="169" y="23" font-size="13" font-weight="700" text-anchor="middle" fill="#0E1116">Standard</text>
      <rect x="226" y="0" width="112" height="36" rx="12" fill="#252B34"/>
      <text x="282" y="23" font-size="13" text-anchor="middle" fill="#8A95A4">Sport</text>
      <rect x="339" y="0" width="109" height="36" rx="12" fill="#252B34"/>
      <text x="393" y="23" font-size="13" text-anchor="middle" fill="#8A95A4">Ludicrous</text>
    </g>
  </g>

  <!-- ============ Tab bar (y 228..272) ============ -->
  <rect x="0" y="228" width="480" height="44" fill="#1A1F26"/>
  <rect x="0" y="228" width="480" height="1" fill="#2F3742"/>
  <!-- active cell tint + 3px strip (Live = index 0) -->
  <rect x="2" y="229" width="92" height="43" fill="#0E2A2E" opacity="0.55"/>
  <rect x="12" y="228" width="72" height="3" rx="2" fill="url(#acc)"/>
  <g text-anchor="middle">
    <use href="#ic-home" x="38" y="234" width="20" height="20" style="color:#00B7C3"/>
    <text x="48" y="266" font-size="10" fill="#00B7C3">Live</text>
    <use href="#ic-drop" x="134" y="234" width="20" height="20" style="color:#8A95A4"/>
    <text x="144" y="266" font-size="10" fill="#8A95A4">AMS</text>
    <use href="#ic-list" x="230" y="234" width="20" height="20" style="color:#8A95A4"/>
    <text x="240" y="266" font-size="10" fill="#8A95A4">Printers</text>
    <use href="#ic-loop" x="326" y="234" width="20" height="20" style="color:#8A95A4"/>
    <text x="336" y="266" font-size="10" fill="#8A95A4">History</text>
    <use href="#ic-gear" x="422" y="234" width="20" height="20" style="color:#8A95A4"/>
    <text x="432" y="266" font-size="10" fill="#8A95A4">Settings</text>
  </g>
</svg>
