<?xml version="1.0" encoding="UTF-8"?>
<!--
  Bamboard Printers list — visual refresh, 1:1 scale of the JC4827W543 (480 x 272).

  Layout (target for firmware/src/ui/screens/printers.cpp):
    Header  : y =   0 ..  36   Bamboard wordmark · printer · link badge
    Body    : y =  36 .. 228 — 50-px row cards, 8-px gap, 12-px gutter; scrolls
    Tab bar : y = 228 .. 272

  The focused printer (Workshop X1C, printing) carries a 2 px accent border +
  a faint accent tint. The list scrolls — the fourth row is clipped under the
  tab bar to hint there's more. Tap a row to focus it and jump to Live.
-->
<svg xmlns="http://www.w3.org/2000/svg" viewBox="0 0 480 272" width="480" height="272" font-family="'Inter','Segoe UI',system-ui,sans-serif">
  <defs>
    <linearGradient id="acc" x1="0" y1="0" x2="0" y2="1"><stop offset="0" stop-color="#00C6D4"/><stop offset="1" stop-color="#008F9B"/></linearGradient>
    <linearGradient id="panel" x1="0" y1="0" x2="0" y2="1"><stop offset="0" stop-color="#2B313B"/><stop offset="1" stop-color="#222831"/></linearGradient>
    <filter id="cardSh" x="-20%" y="-20%" width="140%" height="160%"><feDropShadow dx="0" dy="2" stdDeviation="3" flood-color="#000000" flood-opacity="0.35"/></filter>
    <clipPath id="listClip"><rect x="0" y="36" width="480" height="190"/></clipPath>
    <symbol id="ic-home" viewBox="0 0 24 24"><path d="M4 11.2 12 4l8 7.2M6 10v9h12v-9M10 19v-5h4v5" fill="none" stroke="currentColor" stroke-width="1.8" stroke-linejoin="round" stroke-linecap="round"/></symbol>
    <symbol id="ic-drop" viewBox="0 0 24 24"><path d="M12 3.2C12 3.2 5.5 10 5.5 14.5a6.5 6.5 0 0 0 13 0C18.5 10 12 3.2 12 3.2Z" fill="currentColor"/></symbol>
    <symbol id="ic-list" viewBox="0 0 24 24"><g fill="none" stroke="currentColor" stroke-width="1.8" stroke-linecap="round"><path d="M8 7h11M8 12h11M8 17h11"/><circle cx="4.2" cy="7" r="1.1" fill="currentColor" stroke="none"/><circle cx="4.2" cy="12" r="1.1" fill="currentColor" stroke="none"/><circle cx="4.2" cy="17" r="1.1" fill="currentColor" stroke="none"/></g></symbol>
    <symbol id="ic-loop" viewBox="0 0 24 24"><path d="M19 12a7 7 0 1 1-2.05-4.95M19 4v4h-4" fill="none" stroke="currentColor" stroke-width="1.8" stroke-linecap="round" stroke-linejoin="round"/></symbol>
    <symbol id="ic-gear" viewBox="0 0 24 24"><g fill="none" stroke="currentColor" stroke-width="1.7" stroke-linejoin="round"><circle cx="12" cy="12" r="3.1"/><path d="M12 2.6v3M12 18.4v3M21.4 12h-3M5.6 12h-3M18.6 5.4l-2.1 2.1M7.5 16.5l-2.1 2.1M18.6 18.6l-2.1-2.1M7.5 7.5 5.4 5.4"/></g></symbol>
    <symbol id="ic-wifi" viewBox="0 0 24 24"><g fill="none" stroke="currentColor" stroke-width="1.8" stroke-linecap="round"><path d="M4 9a13 13 0 0 1 16 0"/><path d="M7 12.4a8.5 8.5 0 0 1 10 0"/><path d="M9.6 15.7a4.2 4.2 0 0 1 4.8 0"/></g><circle cx="12" cy="18.6" r="1.3" fill="currentColor"/></symbol>
  </defs>

  <rect width="480" height="272" fill="#0E1116"/>

  <!-- Header -->
  <rect x="0" y="0" width="480" height="36" fill="#1A1F26"/>
  <rect x="0" y="35" width="480" height="1" fill="#2F3742"/>
  <rect x="12" y="13" width="10" height="10" rx="3" fill="url(#acc)"/>
  <text x="29" y="24" font-size="16" font-weight="700" fill="#E9EEF3">Bam<tspan fill="#00B7C3">board</tspan></text>
  <text x="248" y="23" font-size="13" text-anchor="middle" fill="#8A95A4">Workshop X1C</text>
  <g transform="translate(398,8)"><rect width="70" height="20" rx="10" fill="#15271F" stroke="#2F3742"/><use href="#ic-wifi" x="7" y="3" width="14" height="14" style="color:#39D98A"/><text x="26" y="14" font-size="11" font-weight="600" fill="#39D98A">36 ms</text></g>

  <!-- Rows (clipped so the 4th peeks under the tab bar) -->
  <g clip-path="url(#listClip)">
    <!-- Row 1 — Workshop X1C focused, printing 62% -->
    <g transform="translate(12,44)">
      <rect width="456" height="50" rx="12" fill="#0E2A2E" stroke="#00B7C3" stroke-width="2"/>
      <circle cx="18" cy="25" r="6" fill="url(#acc)"/>
      <text x="36" y="22" font-size="14" font-weight="600" fill="#E9EEF3">Workshop X1C</text>
      <text x="36" y="40" font-size="11" fill="#8A95A4">X1 Carbon · PRINTING</text>
      <text x="444" y="33" font-size="20" font-weight="700" fill="#00B7C3" text-anchor="end">62%</text>
    </g>
    <!-- Row 2 — Bedroom A1 mini, idle -->
    <g transform="translate(12,102)">
      <rect width="456" height="50" rx="12" fill="url(#panel)" stroke="#2F3742" filter="url(#cardSh)"/>
      <circle cx="18" cy="25" r="6" fill="#8A95A4"/>
      <text x="36" y="22" font-size="14" font-weight="600" fill="#E9EEF3">Bedroom A1 mini</text>
      <text x="36" y="40" font-size="11" fill="#8A95A4">A1 mini · IDLE</text>
    </g>
    <!-- Row 3 — Lab P1S, paused -->
    <g transform="translate(12,160)">
      <rect width="456" height="50" rx="12" fill="url(#panel)" stroke="#2F3742" filter="url(#cardSh)"/>
      <circle cx="18" cy="25" r="6" fill="#F5A524"/>
      <text x="36" y="22" font-size="14" font-weight="600" fill="#E9EEF3">Lab P1S</text>
      <text x="36" y="40" font-size="11" fill="#8A95A4">P1S · PAUSED</text>
    </g>
    <!-- Row 4 — Garage X1E, finished (peeking) -->
    <g transform="translate(12,218)">
      <rect width="456" height="50" rx="12" fill="url(#panel)" stroke="#2F3742"/>
      <circle cx="18" cy="25" r="6" fill="#39D98A"/>
      <text x="36" y="22" font-size="14" font-weight="600" fill="#E9EEF3">Garage X1E</text>
    </g>
  </g>

  <!-- Tab bar (Printers = index 2) -->
  <rect x="0" y="228" width="480" height="44" fill="#1A1F26"/>
  <rect x="0" y="228" width="480" height="1" fill="#2F3742"/>
  <rect x="194" y="229" width="92" height="43" fill="#0E2A2E" opacity="0.55"/>
  <rect x="204" y="228" width="72" height="3" rx="2" fill="url(#acc)"/>
  <g text-anchor="middle">
    <use href="#ic-home" x="38" y="234" width="20" height="20" style="color:#8A95A4"/><text x="48" y="266" font-size="10" fill="#8A95A4">Live</text>
    <use href="#ic-drop" x="134" y="234" width="20" height="20" style="color:#8A95A4"/><text x="144" y="266" font-size="10" fill="#8A95A4">AMS</text>
    <use href="#ic-list" x="230" y="234" width="20" height="20" style="color:#00B7C3"/><text x="240" y="266" font-size="10" fill="#00B7C3">Printers</text>
    <use href="#ic-loop" x="326" y="234" width="20" height="20" style="color:#8A95A4"/><text x="336" y="266" font-size="10" fill="#8A95A4">History</text>
    <use href="#ic-gear" x="422" y="234" width="20" height="20" style="color:#8A95A4"/><text x="432" y="266" font-size="10" fill="#8A95A4">Settings</text>
  </g>
</svg>
